<svg width="512" height="512" viewBox="0 0 512 512" xmlns="http://www.w3.org/2000/svg" role="img" aria-label="OneStep logo">
  <defs>
    <linearGradient id="bg" x1="0" y1="0" x2="1" y2="1">
      <stop offset="0%" stop-color="#f4f1e8"/>
      <stop offset="100%" stop-color="#dce8e3"/>
    </linearGradient>
    <linearGradient id="shoe" x1="0" y1="0" x2="1" y2="1">
      <stop offset="0%" stop-color="#2f6f62"/>
      <stop offset="100%" stop-color="#3f8d78"/>
    </linearGradient>
  </defs>

  <rect x="24" y="24" width="464" height="464" rx="112" fill="url(#bg)"/>

  <!-- Soft path trail to imply forward movement -->
  <circle cx="126" cy="352" r="14" fill="#b9cfc7"/>
  <circle cx="170" cy="332" r="10" fill="#c6d8d1"/>
  <circle cx="208" cy="314" r="8" fill="#d0ddd8"/>

  <!-- Stylized shoe -->
  <g transform="translate(64 72) rotate(-14 192 192)">
    <path d="M116 284C142 284 176 290 208 300C242 311 268 328 302 336C325 342 348 342 372 338C384 336 390 346 386 356C378 376 362 392 338 402C300 417 247 417 198 402C156 389 118 367 98 340C87 326 88 310 96 297C101 289 108 284 116 284Z" fill="#1f2a2e" opacity="0.14"/>
    <path d="M96 260C122 260 160 267 194 278C232 291 258 309 292 316C315 321 338 321 362 317C374 315 380 326 376 336C368 355 352 371 328 381C290 396 237 397 188 382C146 370 108 348 88 321C77 307 78 290 86 278C90 268 94 260 96 260Z" fill="url(#shoe)"/>
    <path d="M116 268C152 271 186 281 218 294C250 307 274 320 302 326" stroke="#79bea8" stroke-width="10" stroke-linecap="round" opacity="0.8"/>
    <path d="M106 307C142 330 185 343 230 345C266 347 300 342 330 331" stroke="#eaf4f0" stroke-width="7" stroke-linecap="round" opacity="0.75"/>
    <circle cx="160" cy="286" r="5" fill="#eaf4f0"/>
    <circle cx="181" cy="292" r="5" fill="#eaf4f0"/>
    <circle cx="202" cy="299" r="5" fill="#eaf4f0"/>
  </g>

  <text x="256" y="458" text-anchor="middle" font-size="46" font-family="Georgia, serif" fill="#1f2a2e" font-weight="700" letter-spacing="1">OneStep</text>
</svg>
